<?xml version="1.0" standalone="no"?>
<!DOCTYPE svg PUBLIC "-//W3C//DTD SVG 20010904//EN"
 "http://www.w3.org/TR/2001/REC-SVG-20010904/DTD/svg10.dtd">
<svg version="1.0" xmlns="http://www.w3.org/2000/svg"
 width="500.000000pt" height="500.000000pt" viewBox="0 0 500.000000 500.000000"
 preserveAspectRatio="xMidYMid meet">

<g transform="translate(0.000000,500.000000) scale(0.100000,-0.100000)"
fill="#000000" stroke="none">
<path d="M2360 4880 c-41 -5 -119 -23 -172 -41 -327 -105 -573 -370 -665 -717
-23 -84 -26 -117 -26 -247 -1 -170 21 -293 71 -399 16 -34 213 -412 439 -841
226 -429 428 -816 450 -859 l40 -80 65 125 c36 68 242 460 458 871 216 411
403 776 417 810 14 34 34 105 45 158 27 127 21 334 -12 459 -97 366 -368 646
-713 735 -107 28 -282 39 -397 26z m275 -376 c101 -26 165 -63 245 -144 87
-86 122 -147 150 -256 49 -192 -3 -380 -145 -521 -175 -172 -420 -211 -638
-102 -83 42 -204 164 -241 243 -45 97 -59 169 -53 276 15 294 246 518 537 520
47 0 113 -7 145 -16z"/>
<path d="M1171 1075 c-23 -14 -50 -25 -58 -25 -16 0 -70 -111 -99 -202 -10
-32 -21 -58 -24 -58 -4 0 -12 18 -19 40 -13 45 -48 73 -82 68 -20 -3 -58 -44
-96 -104 -9 -15 -12 8 -12 118 l-1 138 -25 6 c-35 9 -73 -19 -95 -69 -25 -56
-50 -274 -50 -428 0 -137 5 -150 62 -164 32 -8 57 5 114 57 l42 39 12 -36 c14
-44 44 -65 91 -65 47 0 77 24 133 109 34 50 225 422 274 533 2 5 -10 21 -26
38 -38 38 -81 39 -141 5z"/>
<path d="M1595 1076 c-73 -34 -196 -199 -290 -389 -72 -148 -106 -257 -89
-285 6 -9 22 -23 36 -31 33 -19 72 0 113 56 16 22 41 44 54 48 13 3 40 17 60
31 19 13 39 24 43 24 5 0 7 -33 6 -72 l-3 -73 38 -9 c30 -8 45 -7 65 5 31 17
36 42 93 392 30 184 31 198 16 215 -10 10 -17 30 -17 44 0 14 -6 31 -14 37
-23 19 -78 22 -111 7z m-40 -356 c-8 -56 -17 -106 -20 -110 -4 -7 -75 -12 -75
-5 0 2 16 44 35 92 37 89 63 138 71 130 2 -2 -2 -50 -11 -107z"/>
<path d="M3185 1076 c-70 -30 -199 -208 -294 -407 -69 -142 -98 -238 -81 -268
29 -56 103 -46 147 19 18 28 46 50 95 75 l71 36 -7 -65 c-6 -59 -5 -66 16 -80
30 -21 71 -20 96 2 23 18 39 92 91 416 27 166 27 170 9 188 -11 11 -17 27 -14
36 15 48 -62 77 -129 48z m-39 -360 c-9 -59 -16 -108 -16 -110 0 -1 -17 -2
-37 -1 -21 0 -37 5 -35 10 22 79 89 221 99 211 3 -2 -3 -52 -11 -110z"/>
<path d="M4286 1083 c-4 -5 -31 -8 -59 -9 -32 0 -68 -9 -94 -22 -113 -58 -233
-304 -233 -476 0 -122 74 -206 189 -214 76 -5 118 9 177 61 112 99 194 290
195 457 1 128 -50 210 -130 210 -21 0 -41 -3 -45 -7z m-41 -369 c-29 -131
-110 -266 -150 -251 -63 25 -25 173 88 342 71 106 72 106 75 39 2 -32 -4 -90
-13 -130z"/>
<path d="M3639 1066 c-101 -39 -172 -98 -235 -197 -80 -126 -109 -316 -61
-409 33 -67 72 -85 182 -85 78 0 98 4 145 27 113 56 186 142 196 234 11 88
-47 126 -154 103 -54 -11 -102 -41 -102 -64 0 -19 84 -67 104 -59 21 8 21 -10
0 -31 -52 -51 -148 -64 -189 -25 -59 55 -5 189 109 271 52 38 88 38 116 -1 17
-24 29 -30 60 -30 103 0 134 178 43 247 -31 23 -47 28 -107 30 -42 2 -86 -3
-107 -11z"/>
<path d="M2261 1059 c-70 -15 -93 -44 -152 -191 -17 -43 -34 -78 -39 -78 -4 0
-10 25 -14 55 -6 53 -40 161 -56 179 -29 31 -104 -13 -140 -84 -41 -82 -123
-371 -136 -483 -8 -65 1 -74 61 -63 55 11 87 62 151 241 8 22 8 21 39 -127 9
-43 23 -85 31 -93 21 -21 63 -19 102 5 39 24 59 66 127 261 26 74 60 164 76
200 22 50 28 80 26 119 -2 60 -18 72 -76 59z"/>
<path d="M2811 1059 c-69 -15 -89 -39 -152 -191 -18 -43 -36 -78 -39 -78 -4 0
-10 25 -14 55 -6 53 -40 161 -56 179 -16 16 -61 8 -86 -15 -39 -36 -63 -81
-95 -175 -38 -111 -87 -305 -95 -377 -8 -65 1 -74 61 -63 55 11 85 59 151 241
7 20 12 3 44 -153 7 -28 18 -59 26 -67 21 -21 63 -19 102 5 39 24 59 66 127
261 26 74 60 164 76 200 22 50 28 80 26 119 -2 60 -18 72 -76 59z"/>
</g>
</svg>
