<svg xmlns="http://www.w3.org/2000/svg" viewBox="0 0 500 500"><g id="freepik--background-complete--inject-4"><rect y="382.4" width="500" height="0.25" style="fill:#ebebeb"></rect><rect x="384" y="396.81" width="59.89" height="0.25" style="fill:#ebebeb"></rect><rect x="286.33" y="391.4" width="52.57" height="0.25" style="fill:#ebebeb"></rect><rect x="362.24" y="396.69" width="16.35" height="0.25" style="fill:#ebebeb"></rect><rect x="56.11" y="391.28" width="48.67" height="0.25" style="fill:#ebebeb"></rect><rect x="109.22" y="391.28" width="10.43" height="0.25" style="fill:#ebebeb"></rect><rect x="168.68" y="393.43" width="33.65" height="0.25" style="fill:#ebebeb"></rect><path d="M237,337.8H43.91a5.71,5.71,0,0,1-5.7-5.71V60.66A5.71,5.71,0,0,1,43.91,55H237a5.71,5.71,0,0,1,5.71,5.71V332.09A5.71,5.71,0,0,1,237,337.8ZM43.91,55.2a5.46,5.46,0,0,0-5.45,5.46V332.09a5.46,5.46,0,0,0,5.45,5.46H237a5.47,5.47,0,0,0,5.46-5.46V60.66A5.47,5.47,0,0,0,237,55.2Z" style="fill:#ebebeb"></path><path d="M453.31,337.8H260.21a5.72,5.72,0,0,1-5.71-5.71V60.66A5.72,5.72,0,0,1,260.21,55h193.1A5.71,5.71,0,0,1,459,60.66V332.09A5.71,5.71,0,0,1,453.31,337.8ZM260.21,55.2a5.47,5.47,0,0,0-5.46,5.46V332.09a5.47,5.47,0,0,0,5.46,5.46h193.1a5.47,5.47,0,0,0,5.46-5.46V60.66a5.47,5.47,0,0,0-5.46-5.46Z" style="fill:#ebebeb"></path><path d="M117.16,76.78c-3.47-3.35-7.11.18-8-3.39S101.61,67.9,98.09,71,92.94,76.3,88,74.45s-7.24-.51-8.92,2-14,1.27-11.53,4.79h47.24S120.4,79.9,117.16,76.78Z" style="fill:#ebebeb"></path><path d="M77.39,146c10.78-5.52,11.42.3,18.23-5.59s20.79-9,21.88-3.91.5,8.71,11.39,5.66,12.68-.83,11.72,3.22,21.15,2.1,11.75,7.9H74.58S67.35,151.15,77.39,146Z" style="fill:#f5f5f5"></path><path d="M448.59,78.6c-1.22-3-7.38-4-14-1.67s2.5-12.26-9.28-9.81c-16.81,3.49-16.19,13.93-22.33,13s-26.09,1.6-17.88,6.82h57.56S449.8,81.59,448.59,78.6Z" style="fill:#ebebeb"></path><circle cx="347.25" cy="116.42" r="31.33" style="fill:#f5f5f5"></circle><path d="M252.86,92.94c-1.83-4.49-11.06-6-21-2.49s3.74-18.38-13.89-14.71c-25.2,5.23-24.26,20.88-33.47,19.44s-39.08,2.41-26.78,10.22h86.23S254.68,97.43,252.86,92.94Z" style="fill:#f5f5f5"></path><path d="M344.69,170c-36.06-56.43-48.12,167.88-100.22,106.18s-78.92-3.38-92.15,35.24A568.21,568.21,0,0,0,133,382.4H388.11S369.42,208.71,344.69,170Z" style="fill:#fafafa"></path><path d="M290.73,340.37C278.65,317.5,254.17,283,206.59,319.5S148,223.19,115.06,256.61C92.49,279.52,75.41,382.4,75.41,382.4H308.35A247.69,247.69,0,0,0,290.73,340.37Z" style="fill:#f5f5f5"></path><path d="M272.13,351.14c12.07-17,36.56-42.71,84.14-15.53S414.86,264,447.8,288.83c22.57,17,39.64,93.57,39.64,93.57H254.51A161.11,161.11,0,0,1,272.13,351.14Z" style="fill:#f0f0f0"></path><path d="M44.24,342.1c24.28-10.71,32.4,31.86,67.48,20.15s53.14-.64,62.05,6.68,13,13.47,13,13.47H15S27.59,349.44,44.24,342.1Z" style="fill:#e6e6e6"></path></g><g id="freepik--Shadow--inject-4"><ellipse id="freepik--path--inject-4" cx="250" cy="416.24" rx="193.89" ry="11.32" style="fill:#f5f5f5"></ellipse></g><g id="freepik--Map--inject-4"><rect x="308" y="329.22" width="1" height="6.89" style="fill:#407BFF"></rect><rect x="308" y="298.78" width="1" height="23.33" style="fill:#407BFF"></rect><rect x="287.83" y="91.33" width="17.67" height="319.67" rx="2.5" style="fill:#407BFF"></rect><polygon points="305.5 288.67 287.83 278.83 287.83 262.83 305.5 262.83 305.5 288.67" style="fill:#263238;opacity:0.4"></polygon><polygon points="407.07 265.44 176.07 265.44 186.27 99.67 417.27 99.67 407.07 265.44" style="fill:#407BFF"></polygon><polygon points="407.07 265.44 176.07 265.44 186.27 99.67 417.27 99.67 407.07 265.44" style="fill:#fff;opacity:0.8"></polygon><polygon points="180.31 261.44 190.02 103.67 413.02 103.67 403.31 261.44 180.31 261.44" style="fill:#fff"></polygon><polygon points="408.85 265.44 407.07 265.44 417.27 99.67 419.04 99.67 408.85 265.44" style="fill:#407BFF"></polygon><path d="M244,126.81a8.16,8.16,0,0,0-4.28,2.62c-1.92,2.36-2.27,5.59-4.18,7.88-1.69,2-4.61,2.66-6,5-1,1.68-.82,3.79-1.72,5.52-1.14,2.16-3.48,3.09-5.3,4.54-2.33,1.87-3.15,4.49-4.84,6.88-2.87,4.08-7.6,6.47-10.95,10.18s-5.12,9.17-3.15,13.45c1.65,3.58,5.4,5.53,8.43,8,2.56,2.09,4.8,5.36,4.05,9s-4.41,5.85-6.39,8.76c-1.81,2.67-2.62,5.83-3.39,8.92a31.48,31.48,0,0,0-1.35,8.92c.39,9.27,9.15,16.08,17.71,17.77a16.63,16.63,0,0,0,10.2-.89,11.23,11.23,0,0,0,4.66-4c2.21-3.45,0-7,5.23-7.89a12.79,12.79,0,0,1,4.84-.19,4.23,4.23,0,0,1,3.37,3c.18.85,0,1.77.25,2.6a3.54,3.54,0,0,0,2.11,2.25c2.46,1,4.72-.05,6.16-2.41,1.14-1.85,1.75-3.83,3.26-5.44a60.71,60.71,0,0,1,9.69-7.7c3-2.07,6.34-3.81,9.88-4.16,3.24-.33,6.79.7,8.77,3.23,2.16,2.77,1,6.82,3.66,9.47a9,9,0,0,0,4.77,2.26,19.32,19.32,0,0,0,13.7-2.89,13.26,13.26,0,0,0,4.72-5c1.45-2.93.46-5.59,1-8.58.77-4.54,4.78-5.35,8.56-5.88a22,22,0,0,0,12.08-5.95c2.36-2.28,5.59-4.23,8.69-2.68a10.78,10.78,0,0,1,3.22,2.76c1.84,2.13,3.43,4.48,5.31,6.58,4.58,5.11,14.78,9.23,19.4.8a8.84,8.84,0,0,0,0-8.47c-1.36-2.35-3.88-4.68-2.54-7.8,1.52-3.52,5.77-3.65,6.4-8.08.55-3.85-1.66-7.49.84-11.1,1.5-2.16,3.9-3.31,5.76-5.1,5-4.83,3.94-11.83,5.77-17.83,2.37-7.76,11.83-9.13,8.79-18.48a28.82,28.82,0,0,0-2.91-6.76,10.93,10.93,0,0,0-5.53-4.62c-4.93-1.67-6.56,1.64-10.1,4.11s-7.39-.61-9.79-2.75c-6.75-6-16.54-7.42-24.4-1.37-2.3,1.78-4.52,3.77-7.17,4.91-6.55,2.81-18.78.46-23.27-4.73a43.92,43.92,0,0,0-2.93-3.69,7.83,7.83,0,0,0-9.71-.31c-1.7,1.26-2.92,3.16-4.78,4.14-3.16,1.67-6.93,1.18-10,3.05-3.32,2-6.19,4.88-10.31,3.52-2.41-.8-4-2.91-5.79-4.69s-4.18-3.38-6.72-2.74c-3.64.91-4.16,6.14-8,6.59-1.5.17-2.84-.65-4.08-1.41a19.86,19.86,0,0,0-7.94-3.23A10.46,10.46,0,0,0,244,126.81Z" style="fill:#407BFF;opacity:0.4"></path><path d="M358.35,231.51c-2.12-2.57-1.57-9.06-5.83-8.47-2.59.36-2.36,1.5-4.67-.14-1.54-1.09-2.26-2.62-5.06-2.64-10.78-.08-10.86,15.38-2.76,19.22,2.37,1.13,3.87-1.11,6-1s3.38,2.47,4.59,3.84a10.27,10.27,0,0,0,11.63,3.2c3.61-1.17,6.78-5.72,5.09-9.4C365.8,232.86,360.69,234.35,358.35,231.51Z" style="fill:#407BFF;opacity:0.4"></path><path d="M214.16,196.72l-.57-.49c1.74-2,1.63-4.22,1.51-6.54a15.51,15.51,0,0,1,.2-4.34c.62-2.62,2.39-3.68,4.11-4.71a8.19,8.19,0,0,0,3.32-2.91c1.21-2.18.08-4.07-1.12-6.07-.32-.53-.65-1.09-.91-1.63a8.87,8.87,0,0,1,.76-8.85,9.44,9.44,0,0,1,7.65-4.34c5.23-.17,10.56,3.44,13.28,6.88,1,1.23,1.87,2.54,2.73,3.81.74,1.08,1.5,2.2,2.31,3.26a10.94,10.94,0,0,0,3.06,3c3.07,1.81,6.55,0,8.93-1.86a23.81,23.81,0,0,1,13.4-4.95c4.19-.2,8.05-.71,9.13-4.84a16.54,16.54,0,0,0,.42-3.23,10.39,10.39,0,0,1,1.35-5.38,13.72,13.72,0,0,1,5.52-4.75,21.57,21.57,0,0,1,14.91-1.68,10.07,10.07,0,0,1,5,2.81c1.43,1.63,1.65,3.56,1.85,5.42a9.29,9.29,0,0,0,1.25,4.43c1.62,2.36,5,3.88,8.53,3.88h.11c3.17,0,6.62-1.09,10.56-3.24l.38-.21a60.63,60.63,0,0,0,10.37-6.58,13.59,13.59,0,0,0,2.52-3.19c.4-.63.81-1.28,1.29-1.91,1.93-2.52,4.6-3.25,7.15-2a4,4,0,0,1,2.23,2.71,6.13,6.13,0,0,1,.05,1.48,5.69,5.69,0,0,0,0,1.17,4,4,0,0,0,3,3,13.39,13.39,0,0,0,5,.23c3.33-.27,3.71-1.68,4.24-3.64a9.31,9.31,0,0,1,1.65-3.65,11.94,11.94,0,0,1,5.4-3.73,18.61,18.61,0,0,1,11,0c8.94,2.49,17.79,10.09,17.44,19.78l-.75,0c.34-9.21-8.45-16.68-16.89-19a18.07,18.07,0,0,0-10.57,0,11.21,11.21,0,0,0-5.07,3.49,8.47,8.47,0,0,0-1.5,3.38c-.54,2-1.06,3.87-4.9,4.19a14.15,14.15,0,0,1-5.25-.26,4.74,4.74,0,0,1-3.55-3.59,6.49,6.49,0,0,1,0-1.32,5.59,5.59,0,0,0,0-1.3,3.31,3.31,0,0,0-1.84-2.18c-2.2-1.12-4.52-.46-6.21,1.75-.46.6-.87,1.23-1.26,1.85a14.2,14.2,0,0,1-2.67,3.36,61.44,61.44,0,0,1-10.49,6.67l-.38.21c-4.05,2.21-7.62,3.29-10.91,3.33-3.9,0-7.46-1.58-9.27-4.2a10,10,0,0,1-1.37-4.78c-.21-1.83-.4-3.55-1.67-5a9.29,9.29,0,0,0-4.65-2.58,20.78,20.78,0,0,0-14.37,1.61,13,13,0,0,0-5.23,4.49,9.75,9.75,0,0,0-1.24,5,16.13,16.13,0,0,1-.43,3.37c-1.32,5-6.44,5.24-9.83,5.4a23.08,23.08,0,0,0-13,4.79c-2.56,2-6.33,3.93-9.77,1.92a11.88,11.88,0,0,1-3.27-3.15c-.82-1.08-1.59-2.21-2.34-3.3-.85-1.26-1.74-2.56-2.7-3.77-2.69-3.39-7.92-6.78-12.66-6.59a8.61,8.61,0,0,0-7.06,4,8.13,8.13,0,0,0-.71,8.1c.25.52.56,1,.88,1.57,1.2,2,2.55,4.27,1.13,6.82a8.79,8.79,0,0,1-3.58,3.19c-1.66,1-3.22,1.93-3.77,4.24a14.69,14.69,0,0,0-.18,4.13C216,192,216.1,194.48,214.16,196.72Z" style="fill:#fff"></path><path d="M285.19,223.16l-.74-.12a6.08,6.08,0,0,1,1.39-2.66A6.86,6.86,0,0,0,287,218.5a8.58,8.58,0,0,0,.31-2.75,9.3,9.3,0,0,1,.34-3,5.7,5.7,0,0,1,2.16-2.83,7.68,7.68,0,0,1,2.45-1.16,14.51,14.51,0,0,1,5.94-.07,4.37,4.37,0,0,0,2.69-.14c1-.55,1.3-1.63,1.59-2.76a4.92,4.92,0,0,1,1.7-3.13c1.29-.92,3.11-1,5.27-.1l.88.37a8.33,8.33,0,0,0,3.76,1c2.22-.17,3.32-1.73,4.48-3.39.27-.39.55-.77.83-1.15a10.66,10.66,0,0,1,2.95-2.37,11.2,11.2,0,0,0,2.57-2,7.65,7.65,0,0,0,1.11-2,12.24,12.24,0,0,1,.81-1.62,5.87,5.87,0,0,1,6.62-2.4,10.59,10.59,0,0,1,1.71.88c.35.21.71.43,1.08.61,4,1.89,12,.36,15.37-2.93a17,17,0,0,0,2.63-3.69l.58-1c3.28-5.36,9.74-7.55,16.09-5.46,2.09.69,5,1.38,6.41-.66a17.65,17.65,0,0,0,.95-1.64c.91-1.7,1.76-3.31,4.64-3.51a7.89,7.89,0,0,1,4.86,1.44l-.42.62a7.23,7.23,0,0,0-4.39-1.31c-2.46.17-3.12,1.4-4,3.11a18.37,18.37,0,0,1-1,1.71c-1.66,2.46-4.94,1.72-7.26.95-6-2-12.13.08-15.22,5.14l-.57.95a17.56,17.56,0,0,1-2.76,3.84c-3.55,3.47-12,5.07-16.21,3.07a12.93,12.93,0,0,1-1.15-.64,9.84,9.84,0,0,0-1.58-.81,5.15,5.15,0,0,0-5.73,2.09,12.64,12.64,0,0,0-.75,1.52,8,8,0,0,1-1.24,2.2,11.8,11.8,0,0,1-2.74,2.11,9.88,9.88,0,0,0-2.74,2.19c-.28.37-.55.74-.81,1.12-1.22,1.73-2.47,3.51-5,3.71a8.79,8.79,0,0,1-4.12-1c-.29-.12-.57-.25-.86-.36-1.33-.53-3.2-1-4.56,0a4.3,4.3,0,0,0-1.4,2.7c-.32,1.25-.65,2.53-2,3.24a5,5,0,0,1-3.15.22,13.92,13.92,0,0,0-5.64.05,7,7,0,0,0-2.2,1,5,5,0,0,0-1.89,2.45,8.77,8.77,0,0,0-.3,2.77,9.22,9.22,0,0,1-.35,3,7.73,7.73,0,0,1-1.25,2.09A5.43,5.43,0,0,0,285.19,223.16Z" style="fill:#fff"></path><polygon points="218.51 112 195.67 112 195.81 109.83 218.64 109.83 218.51 112" style="fill:#407BFF"></polygon><polygon points="218.07 119.09 195.24 119.09 195.37 116.92 218.21 116.92 218.07 119.09" style="fill:#407BFF"></polygon></g><g id="freepik--Character--inject-4"><path d="M148,147.15c-2.56,4.23-5.24,8.66-7.67,13-1.22,2.18-2.38,4.36-3.43,6.51-.52,1.08-1,2.15-1.42,3.18a23.56,23.56,0,0,0-1,2.85,5.18,5.18,0,0,0-.13.54,4.16,4.16,0,0,0-.08.43,8,8,0,0,0,0,1.12,12.93,12.93,0,0,0,.42,2.83,37.51,37.51,0,0,0,2.28,6.44,123.78,123.78,0,0,0,7,13.15l.07.12a3.25,3.25,0,0,1-5,4.08,68.8,68.8,0,0,1-10.77-12.59,42.08,42.08,0,0,1-4.09-7.85,25.14,25.14,0,0,1-1.33-4.79,19.08,19.08,0,0,1-.24-2.8c0-.47,0-1,.06-1.51s.11-.93.17-1.4a41.58,41.58,0,0,1,2.62-8.78c1-2.63,2.21-5.13,3.44-7.56a132.27,132.27,0,0,1,8.16-14.05,6.5,6.5,0,0,1,11,7Z" style="fill:#263238"></path><path d="M145.31,198.75l1.27,4-9.3.83a9.49,9.49,0,0,1,.58-5.14,3.5,3.5,0,0,1,2.86-2l.82-.09A3.56,3.56,0,0,1,145.31,198.75Z" style="fill:#7f3e3b"></path><polygon points="147.35 208.15 140.23 209.59 137.28 203.55 146.58 202.72 147.35 208.15" style="fill:#7f3e3b"></polygon><path d="M170.88,112.21c0,.63.25,1.18.66,1.24s.78-.42.83-1-.25-1.19-.66-1.24S170.92,111.58,170.88,112.21Z" style="fill:#263238"></path><path d="M171.07,113.38a24.26,24.26,0,0,0,2.61,5.79c-1.19.89-3.06.16-3.06.16Z" style="fill:#630f0f"></path><path d="M168.83,108.4a.38.38,0,0,1-.1-.68,3.72,3.72,0,0,1,3.38-.13.39.39,0,0,1,.18.51.37.37,0,0,1-.5.15h0a2.9,2.9,0,0,0-2.67.13A.33.33,0,0,1,168.83,108.4Z" style="fill:#263238"></path><path d="M150.88,116.42c1.33,5.78,2.82,16.36-1,20.11,0,0,1.77,5.87,12.43,6.11,11.72.27,5.4-5.71,5.4-5.71-6.46-1.68-6.46-6.44-5.5-10.89Z" style="fill:#7f3e3b"></path><path d="M146.13,138.46c-1.22-.8.4-7.9,1.58-8.6,3.14-1.86,16.75-1.13,22.73,2.58,1.9,2.14,1.59,6.64,1.59,6.64Z" style="fill:#263238"></path><path d="M145.1,408.94c.8,0,1.58-.08,1.87-.46a.77.77,0,0,0,0-.89.92.92,0,0,0-.6-.45c-1.15-.3-3.28,1.12-3.37,1.18a.16.16,0,0,0-.07.18.19.19,0,0,0,.14.15A10.51,10.51,0,0,0,145.1,408.94Zm.94-1.47a.85.85,0,0,1,.23,0,.55.55,0,0,1,.35.26c.18.31.08.44,0,.48-.33.43-1.93.39-3.11.16A5.76,5.76,0,0,1,146,407.47Z" style="fill:#407BFF"></path><path d="M143.08,408.66l.09,0c.8-.42,2.33-2.09,2.14-3a.65.65,0,0,0-.61-.5.93.93,0,0,0-.78.21c-.9.72-1,3-1,3.07a.19.19,0,0,0,.09.17A.14.14,0,0,0,143.08,408.66Zm1.5-3.14h.09c.24,0,.26.15.27.2.12.52-.85,1.79-1.64,2.38a4.25,4.25,0,0,1,.86-2.44A.68.68,0,0,1,144.58,405.52Z" style="fill:#407BFF"></path><path d="M206.82,402.52c1-.22,1.87-.57,2.05-1.09a.72.72,0,0,0-.24-.79,1,1,0,0,0-.68-.29c-1.36-.06-3.56,2.08-3.65,2.17a.18.18,0,0,0,0,.2.21.21,0,0,0,.19.12A12.87,12.87,0,0,0,206.82,402.52Zm.77-1.76a1.17,1.17,0,0,1,.36,0,.58.58,0,0,1,.42.17c.19.2.18.32.15.4-.21.57-2.11,1-3.57,1.15A7.69,7.69,0,0,1,207.59,400.76Z" style="fill:#407BFF"></path><path d="M204.48,402.84l.07,0c.79-.62,2.13-2.7,1.74-3.54-.09-.19-.3-.41-.81-.35a1.28,1.28,0,0,0-.9.54c-.73,1-.35,3.14-.33,3.23a.22.22,0,0,0,.12.15Zm1-3.54.11,0c.33,0,.39.08.41.12.23.51-.63,2.09-1.4,2.88a4.33,4.33,0,0,1,.33-2.6A.89.89,0,0,1,205.44,399.3Z" style="fill:#407BFF"></path><polygon points="196.13 405.85 203.37 404.38 200.34 385.27 193.09 386.74 196.13 405.85" style="fill:#7f3e3b"></polygon><polygon points="134.06 408.33 142.03 409.14 143.76 391.39 135.79 390.57 134.06 408.33" style="fill:#7f3e3b"></polygon><path d="M142.47,407.54l-8.84-.27a.64.64,0,0,0-.65.52l-1.36,6.93a1.22,1.22,0,0,0,1.19,1.43c3.08,0,4.57-.09,8.46,0,2.39.07,9.93.66,13.21.43s3.29-3.5,1.91-3.71c-6.18-.9-10.65-3-12.63-4.83A2,2,0,0,0,142.47,407.54Z" style="fill:#263238"></path><path d="M203.38,402l-8.23,1.9a.64.64,0,0,0-.5.67l.45,7.17a1.22,1.22,0,0,0,1.47,1.12c3-.74,7.2-1.91,10.93-2.77,4.37-1,6.28-1.19,11.39-2.37,3.1-.72,3.05-4.1,1.68-4.09-6.27.05-9.2.57-15.2-1.45A3.69,3.69,0,0,0,203.38,402Z" style="fill:#263238"></path><polygon points="200.33 385.28 201.9 395.13 194.66 396.6 193.09 386.75 200.33 385.28" style="opacity:0.2"></polygon><polygon points="135.79 390.57 143.76 391.39 142.86 400.54 134.9 399.73 135.79 390.57" style="opacity:0.2"></polygon><path d="M149.92,108.08c-.1,7.79-.55,12.32,3.07,16.81a10.12,10.12,0,0,0,17.7-3c2.18-6.72,2-18.34-5.38-22.42S150,100.28,149.92,108.08Z" style="fill:#7f3e3b"></path><path d="M165.43,114.5c-1.89,3.56-7.65,7.61-10.78,7.89a6.21,6.21,0,0,1-6.72-6.22c-.06-4.17-3-9.11-2.23-12s1.89-4.34,3.56-3.73a12.14,12.14,0,0,1,10.33-4.16A23.42,23.42,0,0,1,168,98.11c2.21,1,5,5.7,3.62,7.68C169.91,108.22,165.37,106.71,165.43,114.5Z" style="fill:#263238"></path><path d="M145.58,110.83c-.33.88-1.06,4.28,2.32,4.79s12.43-.45,16.22-2.66,6.29-7.83,7.17-10.38-.51-5.25-2.73-5.37c-1.69.21-7.23-2.08-9.48-3.71S152,95.43,149,93.79c-8.34-4.54-14.55,5.42-9.05,6.29s5.8,1,5.38,2.42S142.92,109,145.58,110.83Z" style="fill:#407BFF"></path><path d="M146.33,110.83c1.58.13,9.25.09,15.25-3.29A12.19,12.19,0,0,0,167.81,98s-.81,5.22-7.15,8.93S146.33,110.83,146.33,110.83Z" style="opacity:0.2"></path><path d="M161.94,111.52a9.26,9.26,0,0,0,1.43,5.56c1.42,2.2,3.36,1.41,4-.79.57-2,.52-5.5-1.4-6.94S162.14,109.2,161.94,111.52Z" style="fill:#7f3e3b"></path><path d="M167.8,205.42s-1.39,60.07-2.87,83c-1.63,25.06-18.3,109.55-18.3,109.55l-14.4-1.15s10.44-69.25,9.75-104c-.53-26.71-1.25-88-1.25-88Z" style="fill:#407BFF"></path><path d="M149.05,392.84c.06,0-1.61,5.38-1.61,5.38l-16.21-1.3.41-4.89Z" style="fill:#263238"></path><path d="M162.24,231.26c1.89-4.07,3.76-4.93,5-4.95-.46,16.48-1.16,39.16-1.92,54.36C161.62,262,158.35,239.63,162.24,231.26Z" style="opacity:0.30000000000000004"></path><path d="M182.68,205.75s10.29,56,13,79.94c2.83,24.95,8.21,106,8.21,106l-12.77,3s-14.62-80.51-18.85-104.88c-4.61-26.56-19.78-84.71-19.78-84.71Z" style="fill:#407BFF"></path><path d="M204.9,386c.06,0,.81,5.57.81,5.57l-15.54,3.59-1.79-4.73Z" style="fill:#263238"></path><polygon points="228.61 166.19 256.94 414.69 255.44 414.87 224.62 166.66 228.61 166.19" style="fill:#263238"></polygon><path d="M219.7,176l8.85-1.56.15,8.88s-6.71,2.25-9.84-2.73Z" style="fill:#7f3e3b"></path><polygon points="232.81 176 232.78 182.48 228.7 183.27 228.55 174.39 232.81 176" style="fill:#7f3e3b"></polygon><path d="M184.12,142.57c.66,6.57,3.27,23.73.81,60.89a3.23,3.23,0,0,1-3.29,3l-39.25-.87a3.05,3.05,0,0,1-3-3c0-9.16,1.09-32.19-3.21-55.9A10,10,0,0,1,145.55,135c1.36-.07,2.8-.1,4.28-.09,5.35,0,13.06.07,17.79.58a77.19,77.19,0,0,1,12.31,2.28A5.56,5.56,0,0,1,184.12,142.57Z" style="fill:#263238"></path><path d="M146.29,142.39c-2.46-2.09-1.93-5.45-1-7.45.18-.36-.4-.68-.91-.51a29,29,0,0,0-4.82,2,1.93,1.93,0,0,0-1,1.18c-.93,3.59-.21,6.51.81,7.2C142.24,143.86,146.29,142.39,146.29,142.39Z" style="fill:#407BFF"></path><path d="M171.52,145.07c.13-3.31,4.12-6.06,7.06-7.33.51-.22.37-.85-.24-1a36.3,36.3,0,0,0-6.16-.94,3.87,3.87,0,0,0-2.08.5c-4.56,2.74-7,5.8-6.91,7C166.57,144.08,171.52,145.07,171.52,145.07Z" style="fill:#407BFF"></path><path d="M186.42,190.18a34.16,34.16,0,0,1,.34,4.72c0,.62-.31,1.1-.71,1-1.83-.24-6.72-1.17-9.14-4.26l-1.48-14.17c1.24,2.5,4.89,8.71,10.47,11.8A1.21,1.21,0,0,1,186.42,190.18Z" style="fill:#407BFF"></path><path d="M185.62,160,179,158.17c-.84,10.81,3.5,17.54,7,21.3C186,171.66,185.89,165.24,185.62,160Z" style="opacity:0.2"></path><path d="M184.4,142.43c.35,1,.83,2.22,1.26,3.35l1.39,3.43c1,2.27,1.95,4.54,3,6.73a68.77,68.77,0,0,0,7.29,12.18c.69.89,1.41,1.71,2.14,2.5a10,10,0,0,0,1.8,1.53,17.32,17.32,0,0,0,5.5,2.18,53.88,53.88,0,0,0,14.15.9h.26a3.24,3.24,0,0,1,1.33,6.25,38.51,38.51,0,0,1-4.09,1.37c-1.37.37-2.75.7-4.15.94a38,38,0,0,1-8.79.59,25.35,25.35,0,0,1-9.47-2.24,19.23,19.23,0,0,1-4.59-3,44.73,44.73,0,0,1-3.25-3.2,69,69,0,0,1-9.68-14.14c-1.29-2.47-2.5-5-3.57-7.51-.54-1.27-1.06-2.55-1.54-3.85s-.93-2.55-1.4-4a6.5,6.5,0,0,1,12.33-4.14Z" style="fill:#263238"></path><path d="M131.08,141c2.94-3.46,32.55-4.12,39.54-2.37s5.67,22.51,6.49,35.75,2.78,45.2-2.27,48.11-41.39,7-45.58-.81-3-34.33.91-38.94C129.51,173.83,125.69,147.39,131.08,141Z" style="fill:#407BFF"></path><path d="M131.08,141c2.94-3.46,32.55-4.12,39.54-2.37s5.67,22.51,6.49,35.75,2.78,45.2-2.27,48.11-41.39,7-45.58-.81-3-34.33.91-38.94C129.51,173.83,125.69,147.39,131.08,141Z" style="fill:#fff;opacity:0.4"></path><path d="M177.11,174.42c-.73-12,.27-30-4.67-34.73a2,2,0,0,1-.53-.1c-2.39-.89-4.26-.11-4.86,4.57s.61,11.53.66,13.58-.62,8.64-.42,10.64,2.56,26.17-.4,35.17-3.8,21.5,8,19C179.89,219.62,177.93,187.65,177.11,174.42Z" style="fill:#407BFF;opacity:0.2"></path><path d="M144.51,166.89c-7.11,0-13.42-.52-14.5-1.66a.5.5,0,0,1,.72-.69c1.87,2,31.08,2,35.36-.91,1.64-1.12,1.19-5.71.75-10.15-.58-6-1.19-12.2,2.28-14.1a.5.5,0,1,1,.48.88c-2.89,1.58-2.29,7.72-1.76,13.12.5,5.16.94,9.62-1.19,11.07S153.76,166.89,144.51,166.89Z" style="fill:#407BFF;opacity:0.8"></path><path d="M157,161.18c-1.22,1.76-1.79,7.83-1.43,10.37a.68.68,0,0,0,.71.56c.94-.05,2-.16,2.69-.23a.67.67,0,0,0,.6-.68c0-1.84-.07-7.35.41-9.53a.66.66,0,0,0-.58-.81,8.88,8.88,0,0,0-2,.07A.66.66,0,0,0,157,161.18Z" style="fill:#fff"></path><path d="M139,185.33c-6.35.2-9,2-9.34,3.25s-2,16.25-.83,22.34,29.09,4.66,32.21,2.25,1.13-7.59,2.88-12.25,4.24-13.42.74-14.67S152.37,184.92,139,185.33Z" style="fill:#407BFF;opacity:0.2"></path><path d="M135.31,162.16c-1.22,1.76-1.8,7.83-1.43,10.36a.67.67,0,0,0,.71.57c.94-.06,2-.16,2.69-.23a.67.67,0,0,0,.6-.68c0-1.85-.07-7.35.41-9.53a.67.67,0,0,0-.58-.81,8.84,8.84,0,0,0-2,.07A.62.62,0,0,0,135.31,162.16Z" style="fill:#fff"></path></g></svg>